<svg width="74" height="67" viewBox="0 0 74 67" fill="none" xmlns="http://www.w3.org/2000/svg">
<path d="M33 66.5C14.77 66.5 0 51.73 0 33.5C0 15.27 14.77 0.5 33 0.5H40.7V66.5H33Z" fill="#FF9929"/>
<path d="M9.03 56.17H26.7V51.5H5.35C6.43 53.17 7.67 54.73 9.03 56.17Z" fill="#C66D1C"/>
<path d="M0.35 38.31H16.98V34.33H0.0200005C0.0500005 35.68 0.16 37.01 0.35 38.31Z" fill="#C66D1C"/>
<path d="M2.87 20.05H18.43V16H5.03C4.22 17.29 3.49 18.65 2.87 20.05Z" fill="#C66D1C"/>
<path d="M39.63 4.17V0.5H33C27.55 0.5 22.42 1.83 17.89 4.17H39.63Z" fill="#C66D1C"/>
<path d="M0 33.5C0 34.47 0.05 35.44 0.13 36.39H22.86V27.48H0.56C0.2 29.43 0 31.44 0 33.5Z" fill="#FFB32C"/>
<path d="M3.76 18.21H33.11V9.29999H10.57C7.82 11.85 5.51 14.86 3.76 18.21Z" fill="#FFB32C"/>
<path d="M21.21 2.68H40.7V0.5H33C28.84 0.5 24.87 1.28 21.21 2.68Z" fill="#FFB32C"/>
<path d="M7.6 54.57H33.1V45.66H2.32C3.61 48.91 5.4 51.92 7.6 54.57Z" fill="#FFB32C"/>
<path d="M16.45 62.04C21.31 64.87 26.97 66.5 33 66.5H40.7V62.04H16.45Z" fill="#FFB32C"/>
<path d="M40.7 66.5C58.9254 66.5 73.7 51.7254 73.7 33.5C73.7 15.2746 58.9254 0.5 40.7 0.5C22.4746 0.5 7.7 15.2746 7.7 33.5C7.7 51.7254 22.4746 66.5 40.7 66.5Z" fill="#FFEA27"/>
<path d="M40.7 0.5C40.34 0.5 39.98 0.52 39.63 0.53C57.35 1.1 71.55 15.63 71.55 33.5C71.55 51.37 57.35 65.9 39.62 66.47C39.98 66.48 40.34 66.5 40.7 66.5C58.93 66.5 73.7 51.73 73.7 33.5C73.7 15.27 58.93 0.5 40.7 0.5Z" fill="white"/>
<path d="M38.55 57.7C51.9153 57.7 62.75 46.8653 62.75 33.5C62.75 20.1347 51.9153 9.29999 38.55 9.29999C25.1847 9.29999 14.35 20.1347 14.35 33.5C14.35 46.8653 25.1847 57.7 38.55 57.7Z" fill="white"/>
<path d="M40.7 57.7C54.0653 57.7 64.9 46.8653 64.9 33.5C64.9 20.1347 54.0653 9.29999 40.7 9.29999C27.3347 9.29999 16.5 20.1347 16.5 33.5C16.5 46.8653 27.3347 57.7 40.7 57.7Z" fill="#FF9929"/>
<path d="M40.7 9.29999C39.98 9.29999 39.26 9.33999 38.55 9.39999C50.91 10.49 60.61 20.86 60.61 33.5C60.61 46.14 50.92 56.51 38.56 57.6C39.27 57.66 39.98 57.7 40.71 57.7C54.08 57.7 64.91 46.86 64.91 33.5C64.9 20.13 54.07 9.29999 40.7 9.29999Z" fill="#C66D1C"/>
<path d="M51.91 34.67C51.34 33.56 50.42 32.87 49.27 32.44C48.92 32.31 48.56 32.21 48.17 32.08C48.29 32 48.38 31.95 48.47 31.89C49.08 31.49 49.59 30.99 49.97 30.36C50.45 29.53 50.6 28.63 50.57 27.69C50.53 26.28 50.12 25.03 49.07 24.04C48.33 23.35 47.45 22.9 46.49 22.67C45.51 22.44 44.5 22.3 43.5 22.15C43.24 22.11 43.16 22.03 43.16 21.78C43.17 21.34 43.15 20.91 43.14 20.47C43.12 19.4 43.09 18.33 43.07 17.26C42.99 17.24 42.92 17.22 42.86 17.22C41.99 17.24 41.11 17.26 40.24 17.27C40.07 17.27 40.02 17.35 40.02 17.5C40.03 17.83 40.03 18.16 40.04 18.49C40.06 19.58 40.09 20.67 40.1 21.76C40.1 21.86 40.01 22.04 39.95 22.04C39.25 22.08 38.56 22.09 37.83 22.12C37.82 22 37.81 21.91 37.8 21.81C37.77 20.41 37.73 19.01 37.71 17.61C37.71 17.4 37.66 17.32 37.43 17.33C36.6 17.36 35.78 17.38 34.95 17.38C34.7 17.38 34.64 17.47 34.65 17.71C34.69 19.14 34.7 20.57 34.75 21.99C34.76 22.24 34.68 22.3 34.44 22.3C33.49 22.31 32.54 22.34 31.59 22.37C30.66 22.39 29.73 22.41 28.79 22.43C28.78 22.49 28.76 22.52 28.76 22.56C28.77 22.92 28.77 23.28 28.78 23.64H28.76V26.66H32.67C32.7 26.77 32.73 26.89 32.73 27.01C32.82 31.29 32.91 35.58 33 39.86H28.76V44.94H29.24C29.24 44.95 29.24 44.97 29.23 44.98C29.96 44.97 30.67 44.95 31.39 44.94H33.48V44.9C34.06 44.89 34.64 44.88 35.22 44.87C35.23 45.01 35.24 45.11 35.24 45.22C35.27 46.66 35.31 48.1 35.33 49.54C35.33 49.75 35.39 49.84 35.61 49.83C36.46 49.8 37.3 49.78 38.15 49.77C38.35 49.77 38.4 49.71 38.39 49.52C38.37 48.74 38.36 47.97 38.34 47.19C38.33 46.43 38.31 45.66 38.29 44.87C39.02 44.86 39.72 44.85 40.42 44.84C40.6 44.84 40.6 44.96 40.6 45.1C40.63 46.54 40.66 47.98 40.69 49.41C40.69 49.62 40.74 49.72 40.99 49.71C41.79 49.68 42.59 49.67 43.38 49.66C43.76 49.65 43.76 49.65 43.75 49.26C43.72 47.86 43.69 46.46 43.65 45.06C43.64 44.77 43.73 44.69 44.02 44.66C45.73 44.51 47.43 44.24 49.01 43.51C50.25 42.94 51.23 42.08 51.83 40.82C52.34 39.75 52.5 38.6 52.5 37.44C52.5 36.46 52.35 35.53 51.91 34.67ZM38.07 31.32C38.04 29.54 38 27.77 37.96 25.99C37.95 25.75 38.03 25.67 38.27 25.67C39.5 25.63 40.74 25.56 41.97 25.77C42.82 25.92 43.62 26.16 44.25 26.8C45.37 27.95 45.05 29.94 43.63 30.7C43.32 30.86 43 30.99 42.81 31.08C41.57 31.46 40.44 31.53 39.3 31.56C38.98 31.57 38.66 31.57 38.34 31.58C38.15 31.57 38.07 31.53 38.07 31.32ZM45.37 39.9C44.55 40.43 43.65 40.69 42.7 40.86C41.31 41.11 39.9 41.11 38.49 41.14C38.43 41.14 38.38 41.13 38.28 41.12C38.25 39.87 38.22 38.65 38.2 37.42C38.18 36.59 38.17 35.77 38.15 34.94C38.14 34.73 38.17 34.65 38.41 34.64C40.12 34.59 41.83 34.48 43.53 34.84C44.3 35 45.03 35.28 45.64 35.8C46.84 36.83 46.8 38.97 45.37 39.9Z" fill="white"/>
<path d="M50.91 34.67C50.34 33.56 49.42 32.87 48.27 32.44C47.92 32.31 47.56 32.21 47.17 32.08C47.29 32 47.38 31.95 47.47 31.89C48.08 31.49 48.59 30.99 48.97 30.36C49.45 29.53 49.6 28.63 49.57 27.69C49.53 26.28 49.12 25.03 48.07 24.04C47.33 23.35 46.45 22.9 45.49 22.67C44.51 22.44 43.5 22.3 42.5 22.15C42.24 22.11 42.16 22.03 42.16 21.78C42.17 21.34 42.15 20.91 42.14 20.47C42.12 19.4 42.09 18.33 42.07 17.26C41.99 17.24 41.92 17.22 41.86 17.22C40.99 17.24 40.11 17.26 39.24 17.27C39.07 17.27 39.02 17.35 39.02 17.5C39.03 17.83 39.03 18.16 39.04 18.49C39.06 19.58 39.09 20.67 39.1 21.76C39.1 21.86 39.01 22.04 38.95 22.04C38.25 22.08 37.56 22.09 36.83 22.12C36.82 22 36.81 21.91 36.8 21.81C36.77 20.41 36.73 19.01 36.71 17.61C36.71 17.4 36.66 17.32 36.43 17.33C35.6 17.36 34.78 17.38 33.95 17.38C33.7 17.38 33.64 17.47 33.65 17.71C33.69 19.14 33.7 20.57 33.75 21.99C33.76 22.24 33.68 22.3 33.44 22.3C32.49 22.31 31.54 22.34 30.59 22.37C29.66 22.39 28.73 22.41 27.79 22.43C27.78 22.49 27.76 22.52 27.76 22.56C27.77 22.92 27.77 23.28 27.78 23.64H27.76V26.66H31.67C31.7 26.77 31.73 26.89 31.73 27.01C31.82 31.29 31.91 35.58 32 39.86H27.76V44.94H28.24C28.24 44.95 28.24 44.97 28.23 44.98C28.96 44.97 29.67 44.95 30.39 44.94H32.48V44.9C33.06 44.89 33.64 44.88 34.22 44.87C34.23 45.01 34.24 45.11 34.24 45.22C34.27 46.66 34.31 48.1 34.33 49.54C34.33 49.75 34.39 49.84 34.61 49.83C35.46 49.8 36.3 49.78 37.15 49.77C37.35 49.77 37.4 49.71 37.39 49.52C37.37 48.74 37.36 47.97 37.34 47.19C37.33 46.43 37.31 45.66 37.29 44.87C38.02 44.86 38.72 44.85 39.42 44.84C39.6 44.84 39.6 44.96 39.6 45.1C39.63 46.54 39.66 47.98 39.69 49.41C39.69 49.62 39.74 49.72 39.99 49.71C40.79 49.68 41.59 49.67 42.38 49.66C42.76 49.65 42.76 49.65 42.75 49.26C42.72 47.86 42.69 46.46 42.65 45.06C42.64 44.77 42.73 44.69 43.02 44.66C44.73 44.51 46.43 44.24 48.01 43.51C49.25 42.94 50.23 42.08 50.83 40.82C51.34 39.75 51.5 38.6 51.5 37.44C51.5 36.46 51.35 35.53 50.91 34.67ZM37.07 31.32C37.04 29.54 37 27.77 36.96 25.99C36.95 25.75 37.03 25.67 37.27 25.67C38.5 25.63 39.74 25.56 40.97 25.77C41.82 25.92 42.62 26.16 43.25 26.8C44.37 27.95 44.05 29.94 42.63 30.7C42.32 30.86 42 30.99 41.81 31.08C40.57 31.46 39.44 31.53 38.3 31.56C37.98 31.57 37.66 31.57 37.34 31.58C37.15 31.57 37.07 31.53 37.07 31.32ZM44.37 39.9C43.55 40.43 42.65 40.69 41.7 40.86C40.31 41.11 38.9 41.11 37.49 41.14C37.43 41.14 37.38 41.13 37.28 41.12C37.25 39.87 37.22 38.65 37.2 37.42C37.18 36.59 37.17 35.77 37.15 34.94C37.14 34.73 37.17 34.65 37.41 34.64C39.12 34.59 40.83 34.48 42.53 34.84C43.3 35 44.03 35.28 44.64 35.8C45.84 36.83 45.8 38.97 44.37 39.9Z" fill="#FFEA27"/>
</svg>
