<svg width="470" height="470" viewBox="0 0 470 470" fill="none" xmlns="http://www.w3.org/2000/svg">
<path d="M207.936 59.0675C241.321 53.9318 275.478 58.4011 306.418 71.9533L235.001 234.998L207.936 59.0675Z" fill="#20FEB3"/>
<path d="M306.942 72.186C346.148 89.5099 377.787 120.4 396.045 159.18C414.303 197.961 417.953 242.027 406.326 283.283C394.7 324.54 368.576 360.215 332.755 383.755C296.934 407.295 253.821 417.118 211.339 411.42C168.856 405.722 129.855 384.886 101.503 352.739C73.1507 320.592 57.3508 279.294 57.0058 236.432C56.6609 193.57 71.7943 152.023 99.6255 119.424C127.457 86.8253 166.117 65.364 208.502 58.9832L235 235L306.942 72.186Z" fill="#1C1164"/>
<circle cx="235.001" cy="234.998" r="140.5" transform="rotate(-98.4955 235.001 234.998)" fill="#08003E" stroke="#20FEB3"/>
<path d="M233.656 233.839C233.656 235.942 233.49 238.067 233.158 240.214C232.826 242.339 232.306 244.409 231.598 246.423C230.912 248.415 230.026 250.285 228.942 252.034C227.857 253.783 226.562 255.31 225.057 256.616C223.552 257.9 221.814 258.918 219.844 259.671C217.896 260.424 215.705 260.8 213.27 260.8C212.207 260.8 211.089 260.756 209.916 260.667C208.765 260.556 207.614 260.39 206.463 260.169C205.334 259.925 204.227 259.604 203.143 259.206C202.058 258.785 201.073 258.254 200.188 257.612L201.914 245.062C202.6 245.46 203.375 245.836 204.239 246.19C205.102 246.522 205.987 246.821 206.895 247.087C207.802 247.353 208.71 247.563 209.617 247.718C210.525 247.851 211.388 247.917 212.207 247.917C213.491 247.917 214.598 247.74 215.528 247.386C216.479 247.009 217.276 246.478 217.918 245.792C218.582 245.106 219.114 244.287 219.512 243.335C219.91 242.361 220.198 241.276 220.375 240.081C219.047 240.789 217.653 241.332 216.192 241.708C214.731 242.084 213.248 242.272 211.742 242.272C209.883 242.272 208.112 241.985 206.43 241.409C204.748 240.834 203.276 240.015 202.014 238.952C200.752 237.868 199.745 236.55 198.992 235.001C198.24 233.451 197.864 231.692 197.864 229.722C197.864 227.198 198.317 224.885 199.225 222.782C200.155 220.679 201.416 218.875 203.01 217.37C204.604 215.865 206.485 214.692 208.655 213.851C210.846 213.009 213.203 212.589 215.727 212.589C218.804 212.589 221.46 213.164 223.696 214.315C225.953 215.444 227.813 216.983 229.274 218.931C230.757 220.856 231.852 223.103 232.561 225.671C233.291 228.239 233.656 230.961 233.656 233.839ZM219.91 228.991C219.91 228.327 219.755 227.729 219.446 227.198C219.158 226.667 218.781 226.213 218.317 225.837C217.852 225.461 217.321 225.173 216.723 224.974C216.125 224.774 215.528 224.675 214.93 224.675C214.332 224.675 213.746 224.774 213.17 224.974C212.595 225.151 212.074 225.427 211.61 225.804C211.145 226.158 210.768 226.601 210.481 227.132C210.215 227.641 210.082 228.216 210.082 228.858C210.082 229.5 210.226 230.087 210.514 230.618C210.824 231.149 211.211 231.603 211.676 231.979C212.141 232.356 212.672 232.655 213.27 232.876C213.867 233.075 214.465 233.175 215.063 233.175C215.66 233.175 216.247 233.075 216.822 232.876C217.398 232.677 217.918 232.4 218.383 232.046C218.848 231.67 219.213 231.227 219.479 230.718C219.767 230.209 219.91 229.633 219.91 228.991ZM282.697 246.854C282.697 248.028 282.454 249.19 281.967 250.341C281.48 251.47 280.772 252.488 279.842 253.396C278.912 254.281 277.783 255.011 276.455 255.587C275.149 256.14 273.666 256.417 272.006 256.417C270.368 256.417 268.885 256.14 267.557 255.587C266.251 255.011 265.133 254.281 264.203 253.396C263.296 252.488 262.599 251.47 262.112 250.341C261.625 249.19 261.381 248.028 261.381 246.854C261.381 245.703 261.625 244.552 262.112 243.401C262.599 242.25 263.296 241.232 264.203 240.347C265.133 239.439 266.251 238.709 267.557 238.155C268.885 237.58 270.368 237.292 272.006 237.292C273.666 237.292 275.149 237.58 276.455 238.155C277.783 238.709 278.912 239.439 279.842 240.347C280.772 241.232 281.48 242.25 281.967 243.401C282.454 244.552 282.697 245.703 282.697 246.854ZM275.194 246.788C275.194 246.434 275.127 246.058 274.994 245.659C274.884 245.239 274.696 244.851 274.43 244.497C274.164 244.121 273.821 243.811 273.401 243.567C273.002 243.324 272.515 243.202 271.94 243.202C271.364 243.202 270.866 243.324 270.446 243.567C270.025 243.811 269.682 244.121 269.416 244.497C269.151 244.851 268.951 245.239 268.819 245.659C268.686 246.058 268.619 246.434 268.619 246.788C268.619 247.142 268.686 247.53 268.819 247.95C268.951 248.349 269.151 248.736 269.416 249.112C269.682 249.466 270.025 249.765 270.446 250.009C270.866 250.252 271.364 250.374 271.94 250.374C272.515 250.374 273.002 250.252 273.401 250.009C273.821 249.765 274.164 249.466 274.43 249.112C274.696 248.736 274.884 248.349 274.994 247.95C275.127 247.53 275.194 247.142 275.194 246.788ZM257.463 230.386C257.463 231.559 257.22 232.721 256.733 233.872C256.246 235.001 255.537 236.019 254.608 236.927C253.678 237.812 252.549 238.543 251.221 239.118C249.915 239.672 248.432 239.948 246.772 239.948C245.134 239.948 243.651 239.672 242.322 239.118C241.017 238.543 239.899 237.812 238.969 236.927C238.061 236.019 237.364 235.001 236.877 233.872C236.39 232.721 236.147 231.559 236.147 230.386C236.147 229.235 236.39 228.084 236.877 226.933C237.364 225.782 238.061 224.763 238.969 223.878C239.899 222.97 241.017 222.24 242.322 221.687C243.651 221.111 245.134 220.823 246.772 220.823C248.432 220.823 249.915 221.111 251.221 221.687C252.549 222.24 253.678 222.97 254.608 223.878C255.537 224.763 256.246 225.782 256.733 226.933C257.22 228.084 257.463 229.235 257.463 230.386ZM249.959 230.319C249.959 229.965 249.893 229.589 249.76 229.19C249.649 228.77 249.461 228.382 249.196 228.028C248.93 227.652 248.587 227.342 248.166 227.099C247.768 226.855 247.281 226.733 246.705 226.733C246.13 226.733 245.632 226.855 245.211 227.099C244.791 227.342 244.447 227.652 244.182 228.028C243.916 228.382 243.717 228.77 243.584 229.19C243.451 229.589 243.385 229.965 243.385 230.319C243.385 230.674 243.451 231.061 243.584 231.481C243.717 231.88 243.916 232.267 244.182 232.644C244.447 232.998 244.791 233.297 245.211 233.54C245.632 233.784 246.13 233.905 246.705 233.905C247.281 233.905 247.768 233.784 248.166 233.54C248.587 233.297 248.93 232.998 249.196 232.644C249.461 232.267 249.649 231.88 249.76 231.481C249.893 231.061 249.959 230.674 249.959 230.319ZM270.744 219.694C267.911 225.87 265.277 232.157 262.842 238.554C260.429 244.929 258.171 251.37 256.069 257.878L249.162 255.354C250.468 252.145 251.763 248.946 253.047 245.759C254.353 242.549 255.681 239.362 257.031 236.196C258.404 233.031 259.821 229.899 261.281 226.8C262.742 223.679 264.303 220.602 265.963 217.569L270.744 219.694Z" fill="white"/>
</svg>
