<svg width="406" height="406" viewBox="0 0 406 406" fill="none" xmlns="http://www.w3.org/2000/svg">
<path d="M175.937 27.0666C179.622 26.4997 183.323 26.0487 187.037 25.7144L203.001 202.997L175.937 27.0666Z" fill="#20FEB3"/>
<path d="M187.087 25.7115C233.625 21.5344 279.938 35.8231 316.033 65.4938C352.127 95.1644 375.108 137.838 380.016 184.303C384.923 230.769 371.363 277.302 342.263 313.858C313.163 350.414 270.857 374.062 224.474 379.699C178.09 385.335 131.351 372.509 94.3423 343.986C57.3336 315.464 33.0237 273.534 26.6591 227.245C20.2945 180.956 32.3857 134.021 60.3231 96.569C88.2605 59.1168 129.804 34.1513 175.987 27.0604L203 202.999L187.087 25.7115Z" fill="#1C1164"/>
<circle cx="203.001" cy="202.997" r="140.5" transform="rotate(-98.4955 203.001 202.997)" fill="#08003E" stroke="#20FEB3"/>
<path d="M189.903 181.252L187.977 228.467L173.5 227.803L174.297 196.393L168.985 200.045L164.004 188.689L174.828 180.588L189.903 181.252ZM239.342 214.854C239.342 216.027 239.099 217.189 238.612 218.34C238.125 219.469 237.416 220.487 236.487 221.395C235.557 222.28 234.428 223.01 233.1 223.586C231.794 224.139 230.311 224.416 228.651 224.416C227.013 224.416 225.53 224.139 224.202 223.586C222.896 223.01 221.778 222.28 220.848 221.395C219.94 220.487 219.243 219.469 218.756 218.34C218.269 217.189 218.026 216.027 218.026 214.854C218.026 213.702 218.269 212.551 218.756 211.4C219.243 210.249 219.94 209.231 220.848 208.346C221.778 207.438 222.896 206.708 224.202 206.154C225.53 205.579 227.013 205.291 228.651 205.291C230.311 205.291 231.794 205.579 233.1 206.154C234.428 206.708 235.557 207.438 236.487 208.346C237.416 209.231 238.125 210.249 238.612 211.4C239.099 212.551 239.342 213.702 239.342 214.854ZM231.838 214.787C231.838 214.433 231.772 214.057 231.639 213.658C231.528 213.238 231.34 212.85 231.075 212.496C230.809 212.12 230.466 211.81 230.045 211.566C229.647 211.323 229.16 211.201 228.584 211.201C228.009 211.201 227.511 211.323 227.09 211.566C226.67 211.81 226.327 212.12 226.061 212.496C225.795 212.85 225.596 213.238 225.463 213.658C225.33 214.057 225.264 214.433 225.264 214.787C225.264 215.141 225.33 215.529 225.463 215.949C225.596 216.348 225.795 216.735 226.061 217.111C226.327 217.465 226.67 217.764 227.09 218.008C227.511 218.251 228.009 218.373 228.584 218.373C229.16 218.373 229.647 218.251 230.045 218.008C230.466 217.764 230.809 217.465 231.075 217.111C231.34 216.735 231.528 216.348 231.639 215.949C231.772 215.529 231.838 215.141 231.838 214.787ZM214.108 198.385C214.108 199.558 213.864 200.72 213.377 201.871C212.89 203 212.182 204.018 211.252 204.926C210.323 205.811 209.194 206.542 207.866 207.117C206.56 207.671 205.077 207.947 203.416 207.947C201.778 207.947 200.295 207.671 198.967 207.117C197.661 206.542 196.543 205.811 195.614 204.926C194.706 204.018 194.009 203 193.522 201.871C193.035 200.72 192.791 199.558 192.791 198.385C192.791 197.234 193.035 196.083 193.522 194.932C194.009 193.781 194.706 192.762 195.614 191.877C196.543 190.969 197.661 190.239 198.967 189.686C200.295 189.11 201.778 188.822 203.416 188.822C205.077 188.822 206.56 189.11 207.866 189.686C209.194 190.239 210.323 190.969 211.252 191.877C212.182 192.762 212.89 193.781 213.377 194.932C213.864 196.083 214.108 197.234 214.108 198.385ZM206.604 198.318C206.604 197.964 206.537 197.588 206.405 197.189C206.294 196.769 206.106 196.382 205.84 196.027C205.575 195.651 205.231 195.341 204.811 195.098C204.412 194.854 203.925 194.732 203.35 194.732C202.774 194.732 202.276 194.854 201.856 195.098C201.435 195.341 201.092 195.651 200.827 196.027C200.561 196.382 200.362 196.769 200.229 197.189C200.096 197.588 200.03 197.964 200.03 198.318C200.03 198.673 200.096 199.06 200.229 199.48C200.362 199.879 200.561 200.266 200.827 200.643C201.092 200.997 201.435 201.296 201.856 201.539C202.276 201.783 202.774 201.904 203.35 201.904C203.925 201.904 204.412 201.783 204.811 201.539C205.231 201.296 205.575 200.997 205.84 200.643C206.106 200.266 206.294 199.879 206.405 199.48C206.537 199.06 206.604 198.673 206.604 198.318ZM227.389 187.693C224.556 193.869 221.922 200.156 219.487 206.553C217.074 212.928 214.816 219.369 212.713 225.877L205.807 223.354C207.113 220.144 208.408 216.945 209.692 213.758C210.998 210.548 212.326 207.361 213.676 204.195C215.049 201.03 216.465 197.898 217.926 194.799C219.387 191.678 220.948 188.601 222.608 185.568L227.389 187.693Z" fill="white"/>
</svg>
