<svg width="255" height="44" viewBox="0 0 255 44" fill="none" xmlns="http://www.w3.org/2000/svg">
<path d="M37.5564 26.213C36.7917 26.6804 35.8995 26.7653 35.2198 26.383C34.3701 25.8732 33.8603 24.7261 33.8603 23.1541V18.3534C33.8603 16.0592 32.9681 14.4023 31.4386 13.9775C28.8471 13.2127 26.8928 16.3991 26.1706 17.5887L21.5822 24.9385V15.8893C21.5397 13.8075 20.86 12.5755 19.5854 12.1931C18.7357 11.9382 17.4612 12.0657 16.2291 13.935L5.99034 30.3341C4.63083 27.7425 3.90859 24.8535 3.90859 21.9221C3.90859 12.0232 11.8532 3.99356 21.5822 3.99356C31.3112 3.99356 39.2558 12.0232 39.2558 21.9221V21.9646V22.0071C39.3408 23.9189 38.746 25.4483 37.5564 26.213ZM43.1644 21.9221V21.8796V21.8371C43.1219 9.81396 33.4354 0 21.5822 0C9.6865 0 0 9.81396 0 21.9221C0 33.9877 9.6865 43.8442 21.5822 43.8442C27.0627 43.8442 32.2459 41.7624 36.2394 37.9813C37.0466 37.2166 37.0891 35.9845 36.3244 35.1773C35.6021 34.3701 34.3701 34.3276 33.5629 35.0499C33.5629 35.0499 33.5629 35.0499 33.5204 35.0923C30.2916 38.1512 25.9581 39.8931 21.4972 39.8931C16.2716 39.8931 11.5983 37.5989 8.36948 33.9452L17.5886 19.1606V26.0006C17.5886 29.2719 18.8632 30.3341 19.9253 30.6315C20.9874 30.9288 22.6018 30.7164 24.3437 27.9549L29.3994 19.7554C29.5693 19.5005 29.6968 19.2456 29.8667 19.0756V23.2391C29.8667 26.298 31.0988 28.7621 33.223 29.9517C35.1348 31.0563 37.5564 30.9288 39.5532 29.6968C42.0173 28.0824 43.3344 25.2784 43.1644 21.9221ZM73.2436 14.4448C73.7534 14.7422 74.2207 15.4644 74.2207 16.1017C74.2207 17.1213 73.371 17.971 72.3939 17.971C72.139 17.971 71.9265 17.886 71.7141 17.8436C70.567 16.9939 69.1225 16.4416 67.5931 16.4416C63.9819 16.4416 61.5178 19.373 61.5178 23.0267C61.5178 26.6804 64.0244 29.5693 67.5931 29.5693C69.3775 29.5693 70.9919 28.8471 72.1814 27.7C72.4788 27.4876 72.8612 27.3601 73.2436 27.3601C74.2207 27.3601 74.9854 28.1249 74.9854 29.102C74.9854 29.7393 74.6031 30.2916 74.1357 30.589C72.3939 32.0759 70.0572 33.0531 67.6356 33.0531C62.1126 33.0531 57.6092 28.5072 57.6092 22.8992C57.6092 17.2913 62.1126 12.7454 67.6356 12.7454C69.6748 12.7029 71.6291 13.3402 73.2436 14.4448ZM83.3549 18.6933C87.136 18.6933 90.2799 21.8796 90.2799 25.8307C90.2799 29.7393 87.0936 33.0956 83.3549 33.0956C79.4038 33.0956 76.1325 29.7818 76.1325 25.8307C76.1325 21.8796 79.4038 18.6933 83.3549 18.6933ZM83.3124 29.5693C84.9693 29.5693 86.3713 27.9974 86.3713 25.8732C86.3713 23.7489 84.9693 22.3894 83.3124 22.3894C81.5281 22.3894 80.0411 23.7064 80.0411 25.8732C80.0411 27.9549 81.5281 29.5693 83.3124 29.5693ZM92.6591 30.8864V20.86C92.6591 19.7554 93.5087 18.8632 94.6133 18.8632C95.6755 18.8632 96.5676 19.7554 96.5676 20.86V30.8864C96.5676 31.991 95.6755 32.8831 94.6133 32.8831C93.5512 32.8831 92.6591 31.9485 92.6591 30.8864ZM92.3617 15.0821C92.3617 13.765 93.3813 12.7454 94.6133 12.7454C95.8879 12.7454 96.9075 13.8075 96.9075 15.0821C96.9075 16.3566 95.8879 17.3762 94.6133 17.3762C93.3388 17.3337 92.3617 16.3141 92.3617 15.0821ZM104.045 25.4483V30.8864C104.045 31.991 103.153 32.8831 102.091 32.8831C101.029 32.8831 100.136 31.991 100.136 30.8864V20.3926C100.136 19.5429 100.816 18.8632 101.666 18.8632C102.515 18.8632 103.153 19.5854 103.153 20.3926C104.725 18.9057 106.127 18.6933 107.444 18.6933C111.352 18.6933 113.094 21.6247 113.094 24.981V30.8864C113.094 31.991 112.202 32.8831 111.14 32.8831C110.078 32.8831 109.186 31.991 109.186 30.8864V25.4483C109.186 23.7489 108.973 22.3045 106.509 22.3045C104.767 22.3045 104.045 23.7489 104.045 25.4483ZM125.755 27.5301C125.287 27.5301 124.99 27.3176 124.735 27.0203L120.189 22.092V30.8864C120.189 31.991 119.297 32.8831 118.235 32.8831C117.173 32.8831 116.281 31.991 116.281 30.8864V13.4676C116.408 13.1703 116.705 12.9578 117.003 12.9578C117.343 12.9578 117.64 13.2552 117.852 13.4676L125.117 21.6247C125.33 21.8796 125.585 22.0071 125.755 22.0071C125.882 22.0071 126.179 21.8796 126.392 21.6247L133.657 13.4676C133.869 13.2552 134.124 12.9578 134.506 12.9578C134.846 12.9578 135.144 13.1703 135.229 13.4676V30.8864C135.229 31.991 134.379 32.8831 133.274 32.8831C132.212 32.8831 131.32 31.991 131.32 30.8864V22.092L126.774 27.0203C126.434 27.3176 126.137 27.5301 125.755 27.5301ZM144.533 29.5693C146.275 29.5693 147.762 27.9974 147.762 25.8732C147.762 23.7489 146.232 22.3469 144.533 22.3469C142.833 22.3469 141.431 23.7914 141.431 25.8732C141.431 27.9124 142.791 29.5693 144.533 29.5693ZM148.696 31.3537L148.611 30.8864C147.847 32.3733 145.425 33.0531 143.896 33.0531C140.242 33.0531 137.523 29.7393 137.523 25.7882C137.523 21.8796 140.284 18.6508 144.108 18.6508C144.745 18.6508 146.954 18.8207 148.654 20.8175L148.739 20.3502C148.739 19.5005 149.376 18.8207 150.226 18.8207C151.075 18.8207 151.755 19.5429 151.755 20.3502V31.3112C151.755 32.1609 151.075 32.8407 150.226 32.8407C149.334 32.8831 148.696 32.1609 148.696 31.3537ZM162.504 22.3045H162.079C159.615 22.4319 159.148 23.8339 159.148 25.4483V30.8864C159.148 31.991 158.255 32.8831 157.193 32.8831C156.131 32.8831 155.239 31.991 155.239 30.8864V20.3926C155.239 19.5429 155.919 18.8632 156.768 18.8632C157.618 18.8632 158.255 19.5854 158.255 20.3926C159.7 19.0331 160.889 18.7357 162.079 18.6933H162.461C163.396 18.6933 164.246 19.5005 164.246 20.5201C164.288 21.4548 163.438 22.3045 162.504 22.3045ZM177.586 29.9517C177.756 30.2491 177.883 30.5465 177.883 30.8864C177.883 31.906 176.949 32.8407 175.929 32.8407C175.249 32.8407 174.654 32.3308 174.187 31.7361L169.684 26.5104V30.8439C169.684 31.9485 168.792 32.8407 167.729 32.8407C166.667 32.8407 165.775 31.9485 165.775 30.8439V14.9121C165.775 13.8075 166.625 12.9153 167.729 12.9153C168.834 12.9153 169.684 13.8075 169.684 14.9121V24.8535L174.187 19.8828C174.654 19.373 175.207 18.8207 175.887 18.8207C176.864 18.8207 177.756 19.7129 177.756 20.7325C177.756 21.0299 177.671 21.3698 177.501 21.6247L173.932 25.5333L177.586 29.9517ZM185.233 22.3469C184.171 22.3469 182.429 22.8992 182.429 24.5561H188.08C188.037 22.8992 186.253 22.3469 185.233 22.3469ZM190.331 27.0627H182.429C182.429 29.3994 184.681 29.7818 185.658 29.7818C186.38 29.7818 187.4 29.6543 188.207 29.2719C188.462 29.102 188.844 28.9746 189.227 28.9746C190.076 28.9746 190.799 29.6968 190.799 30.589C190.799 31.1837 190.416 31.6936 189.949 31.991C188.759 32.8831 187.187 33.0956 185.7 33.0956C181.749 33.0956 178.478 30.9713 178.478 26.0006C178.478 22.092 180.475 18.6933 185.148 18.6933C188.929 18.6933 191.776 21.1574 191.861 25.5333C191.861 26.3405 191.181 27.0627 190.331 27.0627ZM201.207 33.0531H200.145C197.171 33.0531 195.429 31.7361 195.429 27.1052V22.3045H194.41C193.475 22.3045 192.668 21.4548 192.668 20.5201C192.668 19.5005 193.518 18.6933 194.41 18.6933H195.429V14.9971C195.429 13.8925 196.279 13.0003 197.384 13.0003C198.446 13.0003 199.338 13.8925 199.338 14.9971V18.6933H200.952C201.887 18.6933 202.694 19.5005 202.694 20.5201C202.694 21.4548 201.845 22.3045 200.952 22.3045H199.338V26.3405C199.338 29.017 199.465 29.5693 200.655 29.5693H201.207C202.142 29.5693 202.949 30.3341 202.949 31.3112C202.949 32.2459 202.142 33.0531 201.207 33.0531ZM220.113 14.4448C220.623 14.7422 221.09 15.4644 221.09 16.1017C221.09 17.1213 220.24 17.971 219.263 17.971C219.008 17.971 218.796 17.886 218.584 17.8436C217.436 16.9939 215.992 16.4416 214.463 16.4416C210.851 16.4416 208.387 19.373 208.387 23.0267C208.387 26.6804 210.894 29.5693 214.463 29.5693C216.247 29.5693 217.861 28.8471 219.051 27.7C219.348 27.4876 219.731 27.3601 220.113 27.3601C221.09 27.3601 221.855 28.1249 221.855 29.102C221.855 29.7393 221.473 30.2916 221.005 30.589C219.263 32.0759 216.927 33.0531 214.505 33.0531C208.982 33.0531 204.479 28.5072 204.479 22.8992C204.479 17.2913 208.982 12.7454 214.505 12.7454C216.544 12.7029 218.541 13.3402 220.113 14.4448ZM230.012 29.5693C231.754 29.5693 233.241 27.9974 233.241 25.8732C233.241 23.7489 231.711 22.3469 230.012 22.3469C228.27 22.3469 226.911 23.7914 226.911 25.8732C226.911 27.9124 228.313 29.5693 230.012 29.5693ZM234.175 31.3537L234.09 30.8864C233.326 32.3733 230.904 33.0531 229.375 33.0531C225.721 33.0531 223.002 29.7393 223.002 25.7882C223.002 21.8796 225.763 18.6508 229.587 18.6508C230.224 18.6508 232.434 18.8207 234.133 20.8175L234.218 20.3502C234.218 19.5005 234.855 18.8207 235.705 18.8207C236.555 18.8207 237.234 19.5429 237.234 20.3502V31.3112C237.234 32.1609 236.555 32.8407 235.705 32.8407C234.813 32.8831 234.175 32.1609 234.175 31.3537ZM247.898 29.5693C249.64 29.5693 250.999 27.9124 250.999 25.8732C250.999 23.7489 249.597 22.3469 247.898 22.3469C246.156 22.3469 244.669 23.7489 244.669 25.8732C244.669 27.9974 246.156 29.5693 247.898 29.5693ZM244.669 31.906V36.8767C244.669 37.9813 243.777 38.8735 242.715 38.8735C241.653 38.8735 240.761 37.9813 240.761 36.8767V20.3926C240.761 19.5429 241.44 18.8632 242.29 18.8632C243.14 18.8632 243.777 19.5854 243.777 20.5626C245.221 19.0756 247.006 18.6933 248.365 18.6933C252.146 18.6933 254.95 21.8796 254.95 25.8307C254.95 29.7393 252.274 33.0956 248.578 33.0956C247.431 33.0531 245.731 32.7132 244.669 31.906Z" fill="white"/>
</svg>
