<svg width="74" height="66" viewBox="0 0 74 66" fill="none" xmlns="http://www.w3.org/2000/svg">
<path d="M33.3 66C15.07 66 0.300049 51.23 0.300049 33C0.300049 14.77 15.07 0 33.3 0H41V66H33.3Z" fill="#FF9929"/>
<path d="M9.33002 55.67H27V51H5.65002C6.73002 52.67 7.97002 54.23 9.33002 55.67Z" fill="#C66D1C"/>
<path d="M0.650068 37.81H17.2801V33.83H0.320068C0.350068 35.18 0.460068 36.51 0.650068 37.81Z" fill="#C66D1C"/>
<path d="M3.17004 19.55H18.73V15.5H5.33004C4.52004 16.79 3.79004 18.15 3.17004 19.55Z" fill="#C66D1C"/>
<path d="M39.9301 3.67V0H33.3001C27.8501 0 22.7201 1.33 18.1901 3.67H39.9301Z" fill="#C66D1C"/>
<path d="M0.300049 33C0.300049 33.97 0.350049 34.94 0.430049 35.89H23.16V26.98H0.860049C0.500049 28.93 0.300049 30.94 0.300049 33Z" fill="#FFB32C"/>
<path d="M4.06006 17.71H33.4101V8.79999H10.8701C8.12006 11.35 5.81006 14.36 4.06006 17.71Z" fill="#FFB32C"/>
<path d="M21.5101 2.18H41.0001V0H33.3001C29.1401 0 25.1701 0.78 21.5101 2.18Z" fill="#FFB32C"/>
<path d="M7.90006 54.07H33.4001V45.16H2.62006C3.91006 48.41 5.70006 51.42 7.90006 54.07Z" fill="#FFB32C"/>
<path d="M16.7501 61.54C21.6101 64.37 27.2701 66 33.3001 66H41.0001V61.54H16.7501Z" fill="#FFB32C"/>
<path d="M41.0001 66C59.2255 66 74.0001 51.2254 74.0001 33C74.0001 14.7746 59.2255 0 41.0001 0C22.7747 0 8.00006 14.7746 8.00006 33C8.00006 51.2254 22.7747 66 41.0001 66Z" fill="#FFEA27"/>
<path d="M41 0C40.64 0 40.28 0.02 39.93 0.03C57.65 0.6 71.85 15.13 71.85 33C71.85 50.87 57.65 65.4 39.92 65.97C40.28 65.98 40.64 66 41 66C59.23 66 74 51.23 74 33C74 14.77 59.23 0 41 0Z" fill="white"/>
<path d="M38.85 57.2C52.2153 57.2 63.05 46.3653 63.05 33C63.05 19.6347 52.2153 8.79999 38.85 8.79999C25.4847 8.79999 14.65 19.6347 14.65 33C14.65 46.3653 25.4847 57.2 38.85 57.2Z" fill="white"/>
<path d="M41 57.2C54.3653 57.2 65.2001 46.3653 65.2001 33C65.2001 19.6347 54.3653 8.79999 41 8.79999C27.6348 8.79999 16.8 19.6347 16.8 33C16.8 46.3653 27.6348 57.2 41 57.2Z" fill="#FF9929"/>
<path d="M41 8.79999C40.28 8.79999 39.56 8.83999 38.85 8.89999C51.21 9.98999 60.91 20.36 60.91 33C60.91 45.64 51.22 56.01 38.86 57.1C39.57 57.16 40.28 57.2 41.01 57.2C54.38 57.2 65.21 46.36 65.21 33C65.2 19.63 54.37 8.79999 41 8.79999Z" fill="#C66D1C"/>
<path d="M52.2101 34.17C51.6401 33.06 50.7201 32.37 49.5701 31.94C49.2201 31.81 48.8601 31.71 48.4701 31.58C48.5901 31.5 48.6801 31.45 48.7701 31.39C49.3801 30.99 49.8901 30.49 50.2701 29.86C50.7501 29.03 50.9001 28.13 50.8701 27.19C50.8301 25.78 50.4201 24.53 49.3701 23.54C48.6301 22.85 47.7501 22.4 46.7901 22.17C45.8101 21.94 44.8001 21.8 43.8001 21.65C43.5401 21.61 43.4601 21.53 43.4601 21.28C43.4701 20.84 43.4501 20.41 43.4401 19.97C43.4201 18.9 43.3901 17.83 43.3701 16.76C43.2901 16.74 43.2201 16.72 43.1601 16.72C42.2901 16.74 41.4101 16.76 40.5401 16.77C40.3701 16.77 40.3201 16.85 40.3201 17C40.3301 17.33 40.3301 17.66 40.3401 17.99C40.3601 19.08 40.3901 20.17 40.4001 21.26C40.4001 21.36 40.3101 21.54 40.2501 21.54C39.5501 21.58 38.8601 21.59 38.1301 21.62C38.1201 21.5 38.1101 21.41 38.1001 21.31C38.0701 19.91 38.0301 18.51 38.0101 17.11C38.0101 16.9 37.9601 16.82 37.7301 16.83C36.9001 16.86 36.0801 16.88 35.2501 16.88C35.0001 16.88 34.9401 16.97 34.9501 17.21C34.9901 18.64 35.0001 20.07 35.0501 21.49C35.0601 21.74 34.9801 21.8 34.7401 21.8C33.7901 21.81 32.8401 21.84 31.8901 21.87C30.9601 21.89 30.0301 21.91 29.0901 21.93C29.0801 21.99 29.0601 22.02 29.0601 22.06C29.0701 22.42 29.0701 22.78 29.0801 23.14H29.0601V26.16H32.9701C33.0001 26.27 33.0301 26.39 33.0301 26.51C33.1201 30.79 33.2101 35.08 33.3001 39.36H29.0601V44.44H29.5401C29.5401 44.45 29.5401 44.47 29.5301 44.48C30.2601 44.47 30.9701 44.45 31.6901 44.44H33.7801V44.4C34.3601 44.39 34.9401 44.38 35.5201 44.37C35.5301 44.51 35.5401 44.61 35.5401 44.72C35.5701 46.16 35.6101 47.6 35.6301 49.04C35.6301 49.25 35.6901 49.34 35.9101 49.33C36.7601 49.3 37.6001 49.28 38.4501 49.27C38.6501 49.27 38.7001 49.21 38.6901 49.02C38.6701 48.24 38.6601 47.47 38.6401 46.69C38.6301 45.93 38.6101 45.16 38.5901 44.37C39.3201 44.36 40.0201 44.35 40.7201 44.34C40.9001 44.34 40.9001 44.46 40.9001 44.6C40.9301 46.04 40.9601 47.48 40.9901 48.91C40.9901 49.12 41.0401 49.22 41.2901 49.21C42.0901 49.18 42.8901 49.17 43.6801 49.16C44.0601 49.15 44.0601 49.15 44.0501 48.76C44.0201 47.36 43.9901 45.96 43.9501 44.56C43.9401 44.27 44.0301 44.19 44.3201 44.16C46.0301 44.01 47.7301 43.74 49.3101 43.01C50.5501 42.44 51.5301 41.58 52.1301 40.32C52.6401 39.25 52.8001 38.1 52.8001 36.94C52.8001 35.96 52.6501 35.03 52.2101 34.17ZM38.3701 30.82C38.3401 29.04 38.3001 27.27 38.2601 25.49C38.2501 25.25 38.3301 25.17 38.5701 25.17C39.8001 25.13 41.0401 25.06 42.2701 25.27C43.1201 25.42 43.9201 25.66 44.5501 26.3C45.6701 27.45 45.3501 29.44 43.9301 30.2C43.6201 30.36 43.3001 30.49 43.1101 30.58C41.8701 30.96 40.7401 31.03 39.6001 31.06C39.2801 31.07 38.9601 31.07 38.6401 31.08C38.4501 31.07 38.3701 31.03 38.3701 30.82ZM45.6701 39.4C44.8501 39.93 43.9501 40.19 43.0001 40.36C41.6101 40.61 40.2001 40.61 38.7901 40.64C38.7301 40.64 38.6801 40.63 38.5801 40.62C38.5501 39.37 38.5201 38.15 38.5001 36.92C38.4801 36.09 38.4701 35.27 38.4501 34.44C38.4401 34.23 38.4701 34.15 38.7101 34.14C40.4201 34.09 42.1301 33.98 43.8301 34.34C44.6001 34.5 45.3301 34.78 45.9401 35.3C47.1401 36.33 47.1001 38.47 45.6701 39.4Z" fill="white"/>
<path d="M51.2101 34.17C50.6401 33.06 49.7201 32.37 48.5701 31.94C48.2201 31.81 47.8601 31.71 47.4701 31.58C47.5901 31.5 47.6801 31.45 47.7701 31.39C48.3801 30.99 48.8901 30.49 49.2701 29.86C49.7501 29.03 49.9001 28.13 49.8701 27.19C49.8301 25.78 49.4201 24.53 48.3701 23.54C47.6301 22.85 46.7501 22.4 45.7901 22.17C44.8101 21.94 43.8001 21.8 42.8001 21.65C42.5401 21.61 42.4601 21.53 42.4601 21.28C42.4701 20.84 42.4501 20.41 42.4401 19.97C42.4201 18.9 42.3901 17.83 42.3701 16.76C42.2901 16.74 42.2201 16.72 42.1601 16.72C41.2901 16.74 40.4101 16.76 39.5401 16.77C39.3701 16.77 39.3201 16.85 39.3201 17C39.3301 17.33 39.3301 17.66 39.3401 17.99C39.3601 19.08 39.3901 20.17 39.4001 21.26C39.4001 21.36 39.3101 21.54 39.2501 21.54C38.5501 21.58 37.8601 21.59 37.1301 21.62C37.1201 21.5 37.1101 21.41 37.1001 21.31C37.0701 19.91 37.0301 18.51 37.0101 17.11C37.0101 16.9 36.9601 16.82 36.7301 16.83C35.9001 16.86 35.0801 16.88 34.2501 16.88C34.0001 16.88 33.9401 16.97 33.9501 17.21C33.9901 18.64 34.0001 20.07 34.0501 21.49C34.0601 21.74 33.9801 21.8 33.7401 21.8C32.7901 21.81 31.8401 21.84 30.8901 21.87C29.9601 21.89 29.0301 21.91 28.0901 21.93C28.0801 21.99 28.0601 22.02 28.0601 22.06C28.0701 22.42 28.0701 22.78 28.0801 23.14H28.0601V26.16H31.9701C32.0001 26.27 32.0301 26.39 32.0301 26.51C32.1201 30.79 32.2101 35.08 32.3001 39.36H28.0601V44.44H28.5401C28.5401 44.45 28.5401 44.47 28.5301 44.48C29.2601 44.47 29.9701 44.45 30.6901 44.44H32.7801V44.4C33.3601 44.39 33.9401 44.38 34.5201 44.37C34.5301 44.51 34.5401 44.61 34.5401 44.72C34.5701 46.16 34.6101 47.6 34.6301 49.04C34.6301 49.25 34.6901 49.34 34.9101 49.33C35.7601 49.3 36.6001 49.28 37.4501 49.27C37.6501 49.27 37.7001 49.21 37.6901 49.02C37.6701 48.24 37.6601 47.47 37.6401 46.69C37.6301 45.93 37.6101 45.16 37.5901 44.37C38.3201 44.36 39.0201 44.35 39.7201 44.34C39.9001 44.34 39.9001 44.46 39.9001 44.6C39.9301 46.04 39.9601 47.48 39.9901 48.91C39.9901 49.12 40.0401 49.22 40.2901 49.21C41.0901 49.18 41.8901 49.17 42.6801 49.16C43.0601 49.15 43.0601 49.15 43.0501 48.76C43.0201 47.36 42.9901 45.96 42.9501 44.56C42.9401 44.27 43.0301 44.19 43.3201 44.16C45.0301 44.01 46.7301 43.74 48.3101 43.01C49.5501 42.44 50.5301 41.58 51.1301 40.32C51.6401 39.25 51.8001 38.1 51.8001 36.94C51.8001 35.96 51.6501 35.03 51.2101 34.17ZM37.3701 30.82C37.3401 29.04 37.3001 27.27 37.2601 25.49C37.2501 25.25 37.3301 25.17 37.5701 25.17C38.8001 25.13 40.0401 25.06 41.2701 25.27C42.1201 25.42 42.9201 25.66 43.5501 26.3C44.6701 27.45 44.3501 29.44 42.9301 30.2C42.6201 30.36 42.3001 30.49 42.1101 30.58C40.8701 30.96 39.7401 31.03 38.6001 31.06C38.2801 31.07 37.9601 31.07 37.6401 31.08C37.4501 31.07 37.3701 31.03 37.3701 30.82ZM44.6701 39.4C43.8501 39.93 42.9501 40.19 42.0001 40.36C40.6101 40.61 39.2001 40.61 37.7901 40.64C37.7301 40.64 37.6801 40.63 37.5801 40.62C37.5501 39.37 37.5201 38.15 37.5001 36.92C37.4801 36.09 37.4701 35.27 37.4501 34.44C37.4401 34.23 37.4701 34.15 37.7101 34.14C39.4201 34.09 41.1301 33.98 42.8301 34.34C43.6001 34.5 44.3301 34.78 44.9401 35.3C46.1401 36.33 46.1001 38.47 44.6701 39.4Z" fill="#FFEA27"/>
</svg>
