<svg width="38" height="38" viewBox="0 0 38 38" fill="none" xmlns="http://www.w3.org/2000/svg">
<circle cx="19" cy="19" r="19" fill="#20FEB3"/>
<path d="M18.997 15.3791C17.0035 15.3791 15.3765 17.0061 15.3765 18.9997C15.3765 20.9934 17.0035 22.6203 18.997 22.6203C20.9906 22.6203 22.6176 20.9934 22.6176 18.9997C22.6176 17.0061 20.9906 15.3791 18.997 15.3791ZM29.8559 18.9997C29.8559 17.5004 29.8695 16.0147 29.7853 14.5181C29.7011 12.7798 29.3045 11.237 28.0334 9.9659C26.7596 8.69204 25.2196 8.2982 23.4813 8.21401C21.982 8.12981 20.4963 8.14339 18.9998 8.14339C17.5005 8.14339 16.0148 8.12981 14.5182 8.21401C12.78 8.2982 11.2372 8.69476 9.96611 9.9659C8.69228 11.2398 8.29845 12.7798 8.21425 14.5181C8.13005 16.0174 8.14363 17.5031 8.14363 18.9997C8.14363 20.4963 8.13005 21.9847 8.21425 23.4813C8.29845 25.2196 8.69499 26.7624 9.96611 28.0335C11.24 29.3074 12.78 29.7012 14.5182 29.7854C16.0175 29.8696 17.5032 29.8561 18.9998 29.8561C20.499 29.8561 21.9847 29.8696 23.4813 29.7854C25.2196 29.7012 26.7623 29.3047 28.0334 28.0335C29.3073 26.7597 29.7011 25.2196 29.7853 23.4813C29.8722 21.9847 29.8559 20.499 29.8559 18.9997V18.9997ZM18.997 24.5705C15.9143 24.5705 13.4264 22.0825 13.4264 18.9997C13.4264 15.9169 15.9143 13.429 18.997 13.429C22.0798 13.429 24.5677 15.9169 24.5677 18.9997C24.5677 22.0825 22.0798 24.5705 18.997 24.5705ZM24.7959 14.5018C24.0761 14.5018 23.4949 13.9206 23.4949 13.2008C23.4949 12.481 24.0761 11.8998 24.7959 11.8998C25.5156 11.8998 26.0969 12.481 26.0969 13.2008C26.0971 13.3717 26.0636 13.541 25.9983 13.6989C25.933 13.8569 25.8371 14.0004 25.7163 14.1212C25.5954 14.2421 25.4519 14.3379 25.294 14.4032C25.136 14.4685 24.9668 14.502 24.7959 14.5018V14.5018Z" fill="#08003E"/>
</svg>
